# xmcd
#
# Track frame offsets:
#	150
#	14248
#	29156
#	46613
#	62922
#	77336
#	92523
#	109165
#	126908
#	142303
#	155572
#	170813
#	185415
#
# Disc length: 2705 seconds
#
# Revision: 1
# Processed by: cddbd v1.5.2PL0 Copyright (c) Steve Scherf et al.
# Submitted via: audiograbber 1.83.01
#
DISCID=b90a8f0d
DTITLE=Various Artist - CDX Volume 668 (September 28, 2018)
DYEAR=2018
DGENRE=Country
TTITLE0=Billy Currington - Bring It on Over
TTITLE1=Morgan Evans - Day Drunk
TTITLE2=Carrie Underwood - Love Wins
TTITLE3=Cody Johnson - On My Way to You
TTITLE4=Michael Tyler - Remember These Words
TTITLE5=Adam Hambrick - Rockin' all Night Long
TTITLE6=Eileen Carey - Anything that Reminds Me of You
TTITLE7=Joe Schmidt - Audience of One
TTITLE8=Bubba T - Drunk in Here
TTITLE9=Lynn Easterly - I Listen to My Bad Girl
TTITLE10=Sundance Head - Leave Her Wild
TTITLE11=Vince Hatfield - Rainy Days and Mondays
TTITLE12=Rivershine - The Lover
EXTD=
EXTT0=
EXTT1=
EXTT2=
EXTT3=
EXTT4=
EXTT5=
EXTT6=
EXTT7=
EXTT8=
EXTT9=
EXTT10=
EXTT11=
EXTT12=
PLAYORDER=
